<?xml version="1.0" encoding="UTF-8"?>
<!DOCTYPE svg PUBLIC "-//W3C//DTD SVG 1.1//EN" "http://www.w3.org/Graphics/SVG/1.1/DTD/svg11.dtd">
<svg xmlns="http://www.w3.org/2000/svg" version="1.1" width="32px" height="32px" style="shape-rendering:geometricPrecision; text-rendering:geometricPrecision; image-rendering:optimizeQuality; fill-rule:evenodd; clip-rule:evenodd" xmlns:xlink="http://www.w3.org/1999/xlink">
<g><path style="opacity:1" fill="#121a22" d="M 15.1,5.3 C 19.6,5.1 22.9,6.9 25.3,10.6C 26.8,13.4 27.1,16.3 26.2,19.3C 24.6,23.5 21.6,25.9 17.3,26.6C 13.7,27.0 10.7,25.9 8.1,23.3C 5.2,19.9 4.5,16.1 6.0,11.9C 7.8,8.0 10.8,5.8 15.1,5.3 Z"/></g>
<g><path style="opacity:1" fill="#f6291f" d="M 14.9,7.2 C 18.5,7.0 21.3,8.3 23.4,11.3C 25.0,14.3 25.1,17.3 23.5,20.3C 21.6,23.5 18.7,24.9 14.9,24.6C 11.5,24.0 9.2,22.2 7.8,19.0C 6.6,15.4 7.4,12.2 10.1,9.5C 11.5,8.3 13.1,7.5 14.9,7.2 Z"/></g>
<g><path style="opacity:1" fill="#131a23" d="M 14.4,9.9 C 15.5,9.9 16.6,9.9 17.8,10.0C 19.6,10.3 20.8,11.4 21.6,13.1C 21.6,13.3 21.6,13.5 21.6,13.7C 21.4,13.8 21.3,13.8 21.1,13.7C 20.7,13.2 20.2,12.8 19.7,12.4C 19.0,12.0 18.2,12.0 17.6,12.4C 17.4,12.5 17.3,12.7 17.2,12.9C 17.1,14.6 17.1,15.6 17.2,17.0C 17.3,17.1 17.3,17.2 17.4,17.3C 17.4,19.1 17.4,20.8 17.4,22.6C 17.3,22.7 17.2,22.9 17.1,23.0C 16.4,23.0 15.6,23.0 14.8,23.0C 14.6,22.9 14.6,22.7 14.5,22.5C 14.5,20.7 14.5,19.0 14.6,17.2C 14.6,17.1 14.6,17.1 14.7,17.0C 14.8,15.8 14.8,14.5 14.7,13.3C 14.5,12.7 14.0,12.4 13.2,12.4C 13.1,12.4 12.9,12.4 12.8,12.5C 12.5,12.6 12.3,12.7 12.2,12.9C 11.8,12.9 11.4,12.9 11.1,12.9C 11.1,11.9 11.1,11.1 11.1,10.2C 11.5,10.2 11.9,10.2 12.2,10.2C 12.7,10.6 13.1,10.7 13.6,10.4C 13.8,10.2 14.1,10.0 14.4,9.9 Z"/></g>
</svg>
