<?xml version="1.0" encoding="UTF-8"?>
<!DOCTYPE svg PUBLIC "-//W3C//DTD SVG 1.1//EN" "http://www.w3.org/Graphics/SVG/1.1/DTD/svg11.dtd">
<svg xmlns="http://www.w3.org/2000/svg" version="1.1" width="500px" height="500px" style="shape-rendering:geometricPrecision; text-rendering:geometricPrecision; image-rendering:optimizeQuality; fill-rule:evenodd; clip-rule:evenodd" xmlns:xlink="http://www.w3.org/1999/xlink">
<g><path style="opacity:1" fill="#121a22" d="M 236.5,82.5 C 305.762,80.2064 358.595,108.206 395,166.5C 418.19,209.542 422.856,254.542 409,301.5C 385.205,366.621 339.038,404.788 270.5,416C 214.511,421.67 166.678,404.503 127,364.5C 81.7469,311.662 70.7469,252.328 94,186.5C 121.612,124.738 169.112,90.0715 236.5,82.5 Z"/></g>
<g><path style="opacity:1" fill="#f6291f" d="M 232.5,113.5 C 289.179,108.929 333.346,129.929 365,176.5C 391.224,222.978 392.224,269.978 368,317.5C 336.878,366.645 292.044,389.145 233.5,385C 180.489,375.986 143.322,346.819 122,297.5C 103.45,240.579 115.283,191.079 157.5,149C 179.017,129.774 204.017,117.941 232.5,113.5 Z"/></g>
<g><path style="opacity:1" fill="#131a23" d="M 224.5,154.5 C 242.196,154.156 259.863,154.656 277.5,156C 306.236,161.786 326.069,178.286 337,205.5C 337.667,208.167 337.667,210.833 337,213.5C 334.936,214.591 332.769,214.758 330.5,214C 323.475,206.645 315.809,199.979 307.5,194C 296.536,187.304 285.536,186.971 274.5,193C 272.273,195.564 270.439,198.397 269,201.5C 267.191,222.789 267.191,244.122 269,265.5C 270.252,267.001 271.252,268.668 272,270.5C 272.773,298.167 273.107,325.834 273,353.5C 271.833,356 270,357.833 267.5,359C 255.5,359.667 243.5,359.667 231.5,359C 228.619,357.749 226.786,355.583 226,352.5C 225.873,324.487 226.54,296.487 228,268.5C 228.419,267.328 229.085,266.328 230,265.5C 231.306,246.514 231.639,227.514 231,208.5C 226.153,198.319 217.986,193.652 206.5,194.5C 204.167,194.667 201.833,194.833 199.5,195C 195.879,196.631 192.879,198.965 190.5,202C 184.584,202.807 178.75,202.641 173,201.5C 172.177,187.258 172.344,173.092 173.5,159C 179.5,158.333 185.5,158.333 191.5,159C 197.378,165.984 204.378,167.318 212.5,163C 216.147,159.497 220.147,156.663 224.5,154.5 Z"/></g>
</svg>
